<svg xmlns="http://www.w3.org/2000/svg" viewBox="0 0 640 420" fill="none">
  <rect width="640" height="420" rx="36" fill="#efe6d8"/>
  <rect x="32" y="32" width="576" height="356" rx="28" fill="#f8f3ea" stroke="#6b5847" stroke-opacity=".24" stroke-width="4"/>
  <path d="M218 116c-42 0-76 35-76 79 0 73 60 127 110 127 24 0 47-10 68-31 22 21 44 31 68 31 50 0 110-54 110-127 0-44-34-79-76-79-36 0-60 24-76 53-16-29-40-53-76-53Z" fill="#cfdce2" stroke="#4a3a2c" stroke-width="8"/>
  <path d="M320 122v178M243 194h154" stroke="#4a3a2c" stroke-width="8" stroke-linecap="round"/>
  <circle cx="233" cy="257" r="16" fill="#b37b58"/>
  <circle cx="407" cy="257" r="16" fill="#b37b58"/>
  <path d="M94 342h452" stroke="#6b5847" stroke-opacity=".32" stroke-width="6" stroke-linecap="round"/>
</svg>
